<?xml version="1.0" encoding="UTF-8"?>
<!-- Created with Inkscape (http://www.inkscape.org/) -->
<svg width="2457.6" height="1310.7" version="1.1" viewBox="0 0 2457.6 1310.7" xmlns="http://www.w3.org/2000/svg">
 <defs>
  <filter id="filter586" x="0" y="0" width="1" height="1" color-interpolation-filters="sRGB">
   <feColorMatrix result="color2" values="-1 0 0 0 1 0 -1 0 0 1 0 0 -1 0 1 -0.21 -0.72 -0.07 1 0 "/>
  </filter>
 </defs>
 <path d="m47.039 94.4c-19.774 0.22179-19.957 4.1802-19.84 23.039-2.4175 373.19-0.09325 811.73 1.25 1144.3 3.7278 7.7528 9.11 8.9938 16.67 8.9609h139.2c12.81-1.6759 15.083-3.9437 15.039-15.682v-566.08h195.52c19.155-0.87951 20.566-3.2089 21.477-19.201 1.1598-43.301-2.268-92.125-0.0234-134.4-0.88797-17.393-5.1576-18.697-21.133-18.559h-197.76v-248.32h296.32v981.76c1.0387 15.034-0.62303 20.53 15.68 20.48h482.88c-15.087-52.819-27.822-112.9-42.455-159.36-2.7381-7.852-2.0001-11.396-11.273-11.285l-268.83 0.4063v-833.92h1237.1v833.92h-936.32c14.766 52.996 28.274 112.39 42.549 159.36 3.8124 15.379 4.5943 10.881 21.131 10.881h1381.1c29.685 0.9718 18.543-21.421 13.043-41.92-107.05-393.39-201.32-775.25-298.07-1112.6-4.9655-23.716-14.763-21.852-36.252-21.76zm1246.8 188.01c-44.554 0.75175-89.1 27.39-114.51 64.457-52.117 65.031-74.828 147.71-86.894 228.81-15.28-98.203-46.206-204.97-127.92-268.66-52.167-42.066-130.17-25.84-171.94 22.723-86.466 97.231-107.43 233.88-109.07 359.65 2.3333 122.86 26.816 255.56 112.29 349.01 40.138 44.9 111.32 59.428 162.24 24.172 86.143-61.005 118.6-172.46 134.08-271.85 16.982 99.829 48.288 212.49 136.75 273.02 56.071 38.264 132.04 13.568 171.18-37.184 51.54-59.172 75.347-136.98 90.146-212.16 17.858 93.479 51.584 196.62 135.42 251.15 60.948 38.417 140.55 5.5634 177.64-50.637 81.49-113.93 98.403-261.44 88.5-397.86-9.8255-105.71-36.889-219.02-115.02-295.71-44.148-46.532-122.6-52.657-170.81-8.4356-69.869 59.434-99.378 151.75-116.38 238.45-17.427-94.396-51.347-198.5-136.75-252.47-18.458-11.806-38.711-16.812-58.963-16.471zm770.12 39.186c72.727 268.58 145.97 548.43 209.6 782.72h-209.92c9.0241-260.47-12.694-522.44 0.3203-782.72zm-1173.8 168.73c60.727 6.8098 80.654 77.748 91.541 128.98 13.431 84.269 8.782 180.65-46.252 249.91-32.264 42.088-92.037 14.494-107.33-28.576-42.262-84.939-42.629-188.42-10.871-276.8 13.182-31.952 34.171-70.488 72.916-73.508zm401.28 0c60.726 6.8096 80.656 77.746 91.541 128.97 13.432 84.269 8.783 180.65-46.252 249.91-32.264 42.088-92.035 14.494-107.33-28.576-42.262-84.939-42.629-188.42-10.871-276.8 13.182-31.952 34.169-70.488 72.914-73.508zm393.46 0.43359c11.474-0.68558 23.274 2.6912 34.385 11.721 56.777 52.286 64.506 136.64 63.303 209.6-5.0158 60.404-16.808 130.69-67.699 170.03-48.394 30.666-92.049-27.436-104.37-69.096-30.691-88.386-28.834-191.64 14.186-275.69 11.286-23.889 34.952-45.058 60.195-46.566z" fill="#090509" filter="url(#filter586)"/>
</svg>
