<?xml version="1.0" encoding="UTF-8" standalone="no"?>
<!-- Created with Inkscape (http://www.inkscape.org/) -->

<svg
   version="1.1"
   id="svg21"
   width="2457.6001"
   height="1310.72"
   viewBox="0 0 2457.6001 1310.72"
   sodipodi:docname="FlooodLogoLongTransparent.svg"
   inkscape:version="1.1.2 (b8e25be833, 2022-02-05)"
   xmlns:inkscape="http://www.inkscape.org/namespaces/inkscape"
   xmlns:sodipodi="http://sodipodi.sourceforge.net/DTD/sodipodi-0.dtd"
   xmlns="http://www.w3.org/2000/svg"
   xmlns:svg="http://www.w3.org/2000/svg">
  <defs
     id="defs25">
    <filter
       style="color-interpolation-filters:sRGB;"
       inkscape:label="Invert"
       id="filter586"
       x="0"
       y="0"
       width="1"
       height="1">
      <feColorMatrix
         values="-1 0 0 0 1 0 -1 0 0 1 0 0 -1 0 1 -0.21 -0.72 -0.07 1 0 "
         result="color2"
         id="feColorMatrix584" />
    </filter>
  </defs>
  <sodipodi:namedview
     id="namedview23"
     pagecolor="#ffffff"
     bordercolor="#666666"
     borderopacity="1.0"
     inkscape:pageshadow="2"
     inkscape:pageopacity="0.0"
     inkscape:pagecheckerboard="0"
     showgrid="false"
     showguides="false"
     inkscape:zoom="0.43457029"
     inkscape:cx="1123.2962"
     inkscape:cy="724.05161"
     inkscape:window-width="1920"
     inkscape:window-height="1057"
     inkscape:window-x="1912"
     inkscape:window-y="-101"
     inkscape:window-maximized="1"
     inkscape:current-layer="layer2"
     inkscape:rotation="1" />
  <g
     inkscape:groupmode="layer"
     id="layer2"
     inkscape:label="Image 1"
     style="display:inline">
    <path
       id="path2108-0"
       style="display:inline;fill:#090509;stroke:none;stroke-width:0.32;filter:url(#filter586)"
       d="m 47.039062,94.400391 c -19.773748,0.221793 -19.957148,4.180157 -19.839843,23.039059 -2.417524,373.18774 -0.09325,811.72565 1.25,1144.32035 3.727818,7.7528 9.109951,8.9938 16.669922,8.9609 H 184.32031 c 12.81043,-1.6759 15.08253,-3.9437 15.03907,-15.6816 V 956.16016 688.96094 h 195.51953 c 19.15517,-0.87951 20.56572,-3.2089 21.47656,-19.20117 1.15976,-43.30128 -2.26796,-92.12455 -0.0234,-134.40039 -0.88797,-17.39275 -5.15755,-18.69686 -21.13281,-18.5586 H 197.43945 V 268.48047 h 296.32032 v 981.75973 c 1.03874,15.0345 -0.62303,20.5296 15.67968,20.4805 h 482.88086 c -15.08729,-52.819 -27.82166,-112.9014 -42.45508,-159.3613 -2.73809,-7.852 -2.00007,-11.3957 -11.27343,-11.2852 l -268.83203,0.4063 V 266.56055 H 1906.8809 V 1100.4805 H 970.56055 c 14.7656,52.9963 28.27373,112.3865 42.54885,159.3593 3.8124,15.3787 4.5943,10.8809 21.1308,10.8809 h 248.3203 762.879 369.9199 c 29.6848,0.9718 18.543,-21.4214 13.0429,-41.9199 C 2321.3555,835.41139 2227.0792,453.55162 2130.332,116.16016 2125.3665,92.444001 2115.5688,94.308194 2094.0801,94.400391 Z M 1293.8828,282.41406 c -44.5539,0.75175 -89.1005,27.38968 -114.5078,64.45703 -52.1171,65.03126 -74.8284,147.71482 -86.8945,228.8086 -15.2802,-98.20321 -46.206,-204.96682 -127.91995,-268.66211 -52.16694,-42.0656 -130.17213,-25.83976 -171.9375,22.72265 -86.46603,97.23104 -107.43193,233.87968 -109.07032,359.65235 2.33327,122.85532 26.81558,255.56233 112.28711,349.00582 40.13808,44.9004 111.31512,59.4276 162.24024,24.1719 86.14322,-61.0046 118.60472,-172.46406 134.08012,-271.8496 16.9822,99.82939 48.2881,212.4861 136.7539,273.0234 56.0714,38.2638 132.0392,13.5676 171.1797,-37.1836 51.5405,-59.17218 75.3466,-136.98331 90.1464,-212.16011 17.8578,93.47855 51.584,196.62491 135.4239,251.15431 60.9478,38.4174 140.5528,5.5634 177.6425,-50.6367 81.4896,-113.92753 98.4029,-261.44303 88.5,-397.86331 -9.8255,-105.70943 -36.8893,-219.02311 -115.0195,-295.70508 -44.1478,-46.53184 -122.6009,-52.65704 -170.8086,-8.43555 -69.8692,59.43366 -99.3775,151.75306 -116.3789,238.44532 -17.4272,-94.39571 -51.3467,-198.50421 -136.7539,-252.47461 -18.458,-11.80592 -38.7111,-16.81241 -58.9629,-16.47071 z M 2064,321.59961 c 72.7266,268.57779 145.9658,548.42559 209.5996,782.72069 H 2063.6797 C 2072.7038,843.8545 2050.9859,581.88083 2064,321.59961 Z M 890.24023,490.33203 c 60.72665,6.8098 80.65433,77.74771 91.54102,128.97656 13.43108,84.26903 8.78201,180.65171 -46.25195,249.91211 -32.2639,42.08796 -92.03725,14.49427 -107.33399,-28.57617 -42.26238,-84.93891 -42.62895,-188.41526 -10.87109,-276.80469 13.1824,-31.95181 34.17148,-70.48772 72.91601,-73.50781 z m 401.27927,0 c 60.7259,6.80964 80.6558,77.74574 91.541,128.97461 13.432,84.2694 8.783,180.65343 -46.2519,249.91406 -32.2639,42.08797 -92.0353,14.49423 -107.332,-28.57617 -42.2625,-84.93888 -42.6289,-188.41527 -10.8711,-276.80469 13.1825,-31.95178 34.1694,-70.48772 72.914,-73.50781 z m 393.4551,0.43359 c 11.474,-0.68558 23.2739,2.69125 34.3848,11.72071 56.7766,52.28582 64.5062,136.64286 63.3027,209.60351 -5.0158,60.40358 -16.8085,130.6923 -67.6992,170.02735 -48.3937,30.66562 -92.0486,-27.43599 -104.3691,-69.09571 -30.6913,-88.38586 -28.8335,-191.64396 14.1855,-275.68945 11.2863,-23.88933 34.9525,-45.05811 60.1953,-46.56641 z" />
  </g>
</svg>
